<mxfile host="65bd71144e">
    <diagram id="yKPGHIjmYa8QDN-HBLx1" name="第 1 页">
        <mxGraphModel dx="977" dy="569" grid="1" gridSize="10" guides="1" tooltips="1" connect="1" arrows="1" fold="1" page="1" pageScale="1" pageWidth="827" pageHeight="1169" math="0" shadow="0">
            <root>
                <mxCell id="0"/>
                <mxCell id="1" parent="0"/>
                <mxCell id="5" style="edgeStyle=none;html=1;exitX=1;exitY=0.5;exitDx=0;exitDy=0;entryX=0;entryY=0.5;entryDx=0;entryDy=0;fontSize=11;sketch=1;" parent="1" source="3" target="4" edge="1">
                    <mxGeometry relative="1" as="geometry"/>
                </mxCell>
                <mxCell id="3" value="示例代码" style="rounded=0;whiteSpace=wrap;html=1;fillColor=#ffe6cc;strokeColor=#d79b00;comic=1;" parent="1" vertex="1">
                    <mxGeometry x="40" y="157" width="80" height="32" as="geometry"/>
                </mxCell>
                <mxCell id="7" value="&lt;font style=&quot;font-size: 12px&quot;&gt;javac编译后&lt;br&gt;的等价代码&lt;/font&gt;" style="edgeStyle=none;sketch=1;html=1;exitX=1;exitY=0.5;exitDx=0;exitDy=0;entryX=0;entryY=0.5;entryDx=0;entryDy=0;fontSize=11;" parent="1" source="4" target="6" edge="1">
                    <mxGeometry relative="1" as="geometry"/>
                </mxCell>
                <mxCell id="9" style="edgeStyle=none;sketch=1;html=1;exitX=0.5;exitY=1;exitDx=0;exitDy=0;entryX=0.5;entryY=0;entryDx=0;entryDy=0;fontSize=11;" parent="1" source="4" target="8" edge="1">
                    <mxGeometry relative="1" as="geometry"/>
                </mxCell>
                <mxCell id="4" value="&lt;pre style=&quot;background-color: rgb(255 , 255 , 255) ; color: rgb(8 , 8 , 8) ; font-family: &amp;#34;consolas&amp;#34; , monospace&quot;&gt;&lt;span style=&quot;color: #0033b3&quot;&gt;public class &lt;/span&gt;&lt;span style=&quot;color: #066555&quot;&gt;Main &lt;/span&gt;{&lt;br&gt;&lt;br&gt;    &lt;span style=&quot;color: #0033b3&quot;&gt;enum &lt;/span&gt;&lt;span style=&quot;color: #066555&quot;&gt;Gender &lt;/span&gt;{&lt;br&gt;        &lt;span style=&quot;color: #871094 ; font-style: italic&quot;&gt;MALE&lt;/span&gt;, &lt;span style=&quot;color: #871094 ; font-style: italic&quot;&gt;FEMALE&lt;br&gt;&lt;/span&gt;&lt;span style=&quot;color: #871094 ; font-style: italic&quot;&gt;    &lt;/span&gt;}&lt;br&gt;&lt;br&gt;    &lt;span style=&quot;color: #0033b3&quot;&gt;public static void &lt;/span&gt;&lt;span style=&quot;color: #795e26&quot;&gt;main&lt;/span&gt;(&lt;span style=&quot;color: #066555&quot;&gt;String&lt;/span&gt;[] args) {&lt;br&gt;        &lt;span style=&quot;color: #066555&quot;&gt;Gender &lt;/span&gt;&lt;span style=&quot;color: #000000&quot;&gt;gender &lt;/span&gt;= &lt;span style=&quot;color: #066555&quot;&gt;Gender&lt;/span&gt;.&lt;span style=&quot;color: #871094 ; font-style: italic&quot;&gt;MALE&lt;/span&gt;;&lt;br&gt;        &lt;span style=&quot;color: #0033b3&quot;&gt;switch &lt;/span&gt;(&lt;span style=&quot;color: #000000&quot;&gt;gender&lt;/span&gt;) {&lt;br&gt;            &lt;span style=&quot;color: #0033b3&quot;&gt;case &lt;/span&gt;&lt;span style=&quot;color: #871094 ; font-style: italic&quot;&gt;MALE&lt;/span&gt;:&lt;br&gt;                &lt;span style=&quot;color: #066555&quot;&gt;System&lt;/span&gt;.&lt;span style=&quot;color: #871094 ; font-style: italic&quot;&gt;out&lt;/span&gt;.&lt;span style=&quot;color: #795e26&quot;&gt;println&lt;/span&gt;(&lt;span style=&quot;color: #067d17 ; font-weight: bold&quot;&gt;&quot;&lt;/span&gt;&lt;span style=&quot;color: #067d17 ; font-weight: bold ; font-family: &amp;#34;宋体&amp;#34; , monospace&quot;&gt;男&lt;/span&gt;&lt;span style=&quot;color: #067d17 ; font-weight: bold&quot;&gt;&quot;&lt;/span&gt;);&lt;br&gt;                &lt;span style=&quot;color: #0033b3&quot;&gt;break&lt;/span&gt;;&lt;br&gt;            &lt;span style=&quot;color: #0033b3&quot;&gt;case &lt;/span&gt;&lt;span style=&quot;color: #871094 ; font-style: italic&quot;&gt;FEMALE&lt;/span&gt;:&lt;br&gt;                &lt;span style=&quot;color: #066555&quot;&gt;System&lt;/span&gt;.&lt;span style=&quot;color: #871094 ; font-style: italic&quot;&gt;out&lt;/span&gt;.&lt;span style=&quot;color: #795e26&quot;&gt;println&lt;/span&gt;(&lt;span style=&quot;color: #067d17 ; font-weight: bold&quot;&gt;&quot;&lt;/span&gt;&lt;span style=&quot;color: #067d17 ; font-weight: bold ; font-family: &amp;#34;宋体&amp;#34; , monospace&quot;&gt;女&lt;/span&gt;&lt;span style=&quot;color: #067d17 ; font-weight: bold&quot;&gt;&quot;&lt;/span&gt;);&lt;br&gt;                &lt;span style=&quot;color: #0033b3&quot;&gt;break&lt;/span&gt;;&lt;br&gt;        }&lt;br&gt;    }&lt;br&gt;}&lt;/pre&gt;" style="rounded=0;whiteSpace=wrap;html=1;fillColor=#ffe6cc;strokeColor=#d79b00;comic=1;align=left;" parent="1" vertex="1">
                    <mxGeometry x="155" y="40" width="296" height="266" as="geometry"/>
                </mxCell>
                <mxCell id="6" value="&lt;pre style=&quot;background-color: rgb(255 , 255 , 255) ; color: rgb(8 , 8 , 8) ; font-family: &amp;#34;consolas&amp;#34; , monospace&quot;&gt;&lt;pre style=&quot;font-family: &amp;#34;consolas&amp;#34; , monospace&quot;&gt;&lt;span style=&quot;color: #0033b3&quot;&gt;public class &lt;/span&gt;&lt;span style=&quot;color: #066555&quot;&gt;Main &lt;/span&gt;{&lt;br&gt;&lt;br&gt;    &lt;span style=&quot;color: #0033b3&quot;&gt;enum &lt;/span&gt;&lt;span style=&quot;color: #066555&quot;&gt;Gender &lt;/span&gt;{&lt;br&gt;        &lt;span style=&quot;color: #871094 ; font-style: italic&quot;&gt;MALE&lt;/span&gt;, &lt;span style=&quot;color: #871094 ; font-style: italic&quot;&gt;FEMALE&lt;br&gt;&lt;/span&gt;&lt;span style=&quot;color: #871094 ; font-style: italic&quot;&gt;    &lt;/span&gt;}&lt;br&gt;&lt;br&gt;    &lt;span style=&quot;color: #0033b3&quot;&gt;static class &lt;/span&gt;&lt;span style=&quot;color: #066555&quot;&gt;$Map &lt;/span&gt;{&lt;br&gt;        &lt;span style=&quot;color: #0033b3&quot;&gt;static int&lt;/span&gt;[] &lt;span style=&quot;color: #871094 ; font-style: italic&quot;&gt;map &lt;/span&gt;= &lt;span style=&quot;color: #0033b3&quot;&gt;new int&lt;/span&gt;[&lt;span style=&quot;color: #1750eb&quot;&gt;2&lt;/span&gt;];&lt;br&gt;        &lt;span style=&quot;color: #0033b3&quot;&gt;static &lt;/span&gt;{&lt;br&gt;            &lt;span style=&quot;color: #871094 ; font-style: italic&quot;&gt;map&lt;/span&gt;[&lt;span style=&quot;color: #066555&quot;&gt;Gender&lt;/span&gt;.&lt;span style=&quot;color: #871094 ; font-style: italic&quot;&gt;MALE&lt;/span&gt;.&lt;span style=&quot;color: #795e26&quot;&gt;ordinal&lt;/span&gt;()] = &lt;span style=&quot;color: #1750eb&quot;&gt;1&lt;/span&gt;;&lt;br&gt;            &lt;span style=&quot;color: #871094 ; font-style: italic&quot;&gt;map&lt;/span&gt;[&lt;span style=&quot;color: #066555&quot;&gt;Gender&lt;/span&gt;.&lt;span style=&quot;color: #871094 ; font-style: italic&quot;&gt;FEMALE&lt;/span&gt;.&lt;span style=&quot;color: #795e26&quot;&gt;ordinal&lt;/span&gt;()] = &lt;span style=&quot;color: #1750eb&quot;&gt;2&lt;/span&gt;;&lt;br&gt;        }&lt;br&gt;    }&lt;br&gt;&lt;br&gt;    &lt;span style=&quot;color: #0033b3&quot;&gt;public static void &lt;/span&gt;&lt;span style=&quot;color: #795e26&quot;&gt;main&lt;/span&gt;(&lt;span style=&quot;color: #066555&quot;&gt;String&lt;/span&gt;[] args) {&lt;br&gt;        &lt;span style=&quot;color: #066555&quot;&gt;Gender &lt;/span&gt;&lt;span style=&quot;color: #000000&quot;&gt;gender &lt;/span&gt;= &lt;span style=&quot;color: #066555&quot;&gt;Gender&lt;/span&gt;.&lt;span style=&quot;color: #871094 ; font-style: italic&quot;&gt;MALE&lt;/span&gt;;&lt;br&gt;        &lt;span style=&quot;color: #0033b3&quot;&gt;int &lt;/span&gt;&lt;span style=&quot;color: #000000&quot;&gt;x &lt;/span&gt;= &lt;span style=&quot;color: #066555&quot;&gt;$Map&lt;/span&gt;.&lt;span style=&quot;color: #871094 ; font-style: italic&quot;&gt;map&lt;/span&gt;[&lt;span style=&quot;color: #000000&quot;&gt;gender&lt;/span&gt;.&lt;span style=&quot;color: #795e26&quot;&gt;ordinal&lt;/span&gt;()];&lt;br&gt;        &lt;span style=&quot;color: #0033b3&quot;&gt;switch &lt;/span&gt;(&lt;span style=&quot;color: #000000&quot;&gt;x&lt;/span&gt;) {&lt;br&gt;            &lt;span style=&quot;color: #0033b3&quot;&gt;case &lt;/span&gt;&lt;span style=&quot;color: #1750eb&quot;&gt;1&lt;/span&gt;:&lt;br&gt;                &lt;span style=&quot;color: #066555&quot;&gt;System&lt;/span&gt;.&lt;span style=&quot;color: #871094 ; font-style: italic&quot;&gt;out&lt;/span&gt;.&lt;span style=&quot;color: #795e26&quot;&gt;println&lt;/span&gt;(&lt;span style=&quot;color: #067d17 ; font-weight: bold&quot;&gt;&quot;&lt;/span&gt;&lt;span style=&quot;color: #067d17 ; font-weight: bold ; font-family: &amp;#34;宋体&amp;#34; , monospace&quot;&gt;男&lt;/span&gt;&lt;span style=&quot;color: #067d17 ; font-weight: bold&quot;&gt;&quot;&lt;/span&gt;);&lt;br&gt;                &lt;span style=&quot;color: #0033b3&quot;&gt;break&lt;/span&gt;;&lt;br&gt;            &lt;span style=&quot;color: #0033b3&quot;&gt;case &lt;/span&gt;&lt;span style=&quot;color: #1750eb&quot;&gt;2&lt;/span&gt;:&lt;br&gt;                &lt;span style=&quot;color: #066555&quot;&gt;System&lt;/span&gt;.&lt;span style=&quot;color: #871094 ; font-style: italic&quot;&gt;out&lt;/span&gt;.&lt;span style=&quot;color: #795e26&quot;&gt;println&lt;/span&gt;(&lt;span style=&quot;color: #067d17 ; font-weight: bold&quot;&gt;&quot;&lt;/span&gt;&lt;span style=&quot;color: #067d17 ; font-weight: bold ; font-family: &amp;#34;宋体&amp;#34; , monospace&quot;&gt;女&lt;/span&gt;&lt;span style=&quot;color: #067d17 ; font-weight: bold&quot;&gt;&quot;&lt;/span&gt;);&lt;br&gt;                &lt;span style=&quot;color: #0033b3&quot;&gt;break&lt;/span&gt;;&lt;br&gt;        }&lt;br&gt;    }&lt;br&gt;}&lt;/pre&gt;&lt;/pre&gt;" style="rounded=0;whiteSpace=wrap;html=1;fillColor=#ffe6cc;strokeColor=#d79b00;comic=1;align=left;" parent="1" vertex="1">
                    <mxGeometry x="550" y="40" width="302" height="394" as="geometry"/>
                </mxCell>
                <mxCell id="11" style="edgeStyle=orthogonalEdgeStyle;sketch=1;html=1;exitX=0.5;exitY=1;exitDx=0;exitDy=0;entryX=0.5;entryY=0;entryDx=0;entryDy=0;fontSize=11;rounded=0;" parent="1" source="8" target="10" edge="1">
                    <mxGeometry relative="1" as="geometry"/>
                </mxCell>
                <mxCell id="8" value="&lt;div style=&quot;text-align: left&quot;&gt;&lt;span&gt;事实上，上面的代码编译后得到了三个class文件：&lt;/span&gt;&lt;/div&gt;&lt;div style=&quot;text-align: left&quot;&gt;&lt;span&gt;① Main.class&lt;/span&gt;&lt;/div&gt;&lt;div style=&quot;text-align: left&quot;&gt;&lt;span&gt;② Main$Gender.class&lt;/span&gt;&lt;/div&gt;&lt;div style=&quot;text-align: left&quot;&gt;&lt;span&gt;③ Main$1.class&lt;/span&gt;&lt;/div&gt;&lt;div style=&quot;text-align: left&quot;&gt;其中右边等价代码的$Map的逻辑在&lt;b&gt;Main$1.class&lt;/b&gt;中&lt;/div&gt;" style="rounded=0;whiteSpace=wrap;html=1;fillColor=#ffe6cc;strokeColor=#d79b00;comic=1;sketch=1;" parent="1" vertex="1">
                    <mxGeometry x="163" y="340" width="280" height="80" as="geometry"/>
                </mxCell>
                <mxCell id="13" value="&lt;font style=&quot;font-size: 12px&quot;&gt;Main$1.class&lt;/font&gt;" style="rounded=0;sketch=1;html=1;exitX=1;exitY=0.5;exitDx=0;exitDy=0;entryX=0;entryY=0.5;entryDx=0;entryDy=0;fontSize=11;" parent="1" source="10" target="12" edge="1">
                    <mxGeometry relative="1" as="geometry"/>
                </mxCell>
                <mxCell id="15" value="&lt;font style=&quot;font-size: 12px&quot;&gt;Main.class&lt;/font&gt;" style="edgeStyle=none;rounded=0;sketch=1;html=1;exitX=0.5;exitY=1;exitDx=0;exitDy=0;entryX=0;entryY=0.5;entryDx=0;entryDy=0;fontSize=11;" parent="1" source="10" target="14" edge="1">
                    <mxGeometry relative="1" as="geometry"/>
                </mxCell>
                <mxCell id="10" value="" style="shape=image;imageAspect=0;aspect=fixed;verticalLabelPosition=bottom;verticalAlign=top;comic=1;sketch=1;fontSize=11;image=https://codereaper-image-bed.oss-cn-shenzhen.aliyuncs.com/img/image-20220825160421674.png;imageBorder=default;" parent="1" vertex="1">
                    <mxGeometry x="40" y="565.64" width="142.51" height="63" as="geometry"/>
                </mxCell>
                <mxCell id="12" value="" style="shape=image;imageAspect=0;aspect=fixed;verticalLabelPosition=bottom;verticalAlign=top;comic=1;sketch=1;fontSize=11;image=https://codereaper-image-bed.oss-cn-shenzhen.aliyuncs.com/img/image-20220825160551317.png;imageBorder=default;" parent="1" vertex="1">
                    <mxGeometry x="290" y="450" width="412.46" height="294.27" as="geometry"/>
                </mxCell>
                <mxCell id="14" value="" style="shape=image;imageAspect=0;aspect=fixed;verticalLabelPosition=bottom;verticalAlign=top;comic=1;sketch=1;fontSize=11;image=https://codereaper-image-bed.oss-cn-shenzhen.aliyuncs.com/img/image-20220825160811678.png;imageBorder=default;" parent="1" vertex="1">
                    <mxGeometry x="290" y="760" width="395.11" height="348" as="geometry"/>
                </mxCell>
            </root>
        </mxGraphModel>
    </diagram>
</mxfile>